# xmcd CD database file
#
# Track frame offsets:
#	150
#	10023
#	21220
#	33068
#	46274
#	60614
#	71605
#	82858
#	96884
#	110281
#
# Disc length: 1605 seconds
#
# Revision: 0
# Processed by: cddbd v1.5.1PL0 Copyright (c) Steve Scherf et al.
# Submitted via: CDex 1.51
#
DISCID=6b06430a
DTITLE=George Jones - Top 10 Country Hits
DYEAR=1900
DGENRE=Country
TTITLE0=The Race is On
TTITLE1=Tender Years
TTITLE2=She Still Thinks I Care
TTITLE3=Things Have Gone to Pieces
TTITLE4=A Good Year for the Roses
TTITLE5=Say It's Not You
TTITLE6=Four-O-Thirty Three
TTITLE7=She's mine
TTITLE8=When the Grass Grows Over Me
TTITLE9=Walk Tgrough This World With Me
EXTD=
EXTT0=
EXTT1=
EXTT2=
EXTT3=
EXTT4=
EXTT5=
EXTT6=
EXTT7=
EXTT8=
EXTT9=
PLAYORDER=
